<svg width="656" height="208" viewBox="0 0 656 208" fill="none" xmlns="http://www.w3.org/2000/svg">
<path d="M73.3638 94.6902H146.728V100.815H73.3638V94.6902Z" fill="white"/>
<path d="M30.5927 55.4912C25.5062 55.4912 20.9087 54.3152 16.8003 51.9632C12.7409 49.5623 9.56176 46.2794 7.26302 42.1145C4.96429 37.9006 3.81492 33.1477 3.81492 27.8558C3.81492 22.564 4.93983 17.8111 7.18966 13.5972C9.48839 9.33428 12.6675 6.00235 16.727 3.60141C20.8353 1.20047 25.4573 0 30.5927 0C34.4076 0 38.0269 0.808481 41.4506 2.42544C44.9231 4.0424 47.8577 6.29635 50.2542 9.18728C52.6508 12.0292 54.2892 15.2386 55.1696 18.8155L48.6402 19.6975C48.0044 17.0516 46.7817 14.6751 44.972 12.5682C43.2113 10.4612 41.0593 8.81979 38.516 7.64381C36.0217 6.46784 33.3806 5.87986 30.5927 5.87986C26.7289 5.87986 23.2563 6.83534 20.1751 8.74629C17.1427 10.6082 14.7706 13.2052 13.0588 16.5371C11.3469 19.82 10.491 23.5439 10.491 27.7088C10.491 31.8737 11.3469 35.6221 13.0588 38.9541C14.8195 42.286 17.216 44.9074 20.2484 46.8184C23.3297 48.6803 26.7778 49.6113 30.5927 49.6113C33.3316 49.6113 35.9483 49.0478 38.4427 47.9209C40.937 46.7449 43.089 45.1524 44.8987 43.1435C46.7083 41.0855 47.98 38.8071 48.7136 36.3081L55.0962 37.5576C54.2648 40.9385 52.6508 44.0009 50.2542 46.7449C47.8577 49.4888 44.9231 51.6448 41.4506 53.2127C38.0269 54.7317 34.4076 55.4912 30.5927 55.4912Z" fill="white"/>
<path d="M65.7879 1.83745H106.945V53.6537H100.269V7.34982H72.5374V53.6537H65.7879V1.83745Z" fill="white"/>
<path d="M135.559 1.83745H144.656L163.95 53.6537H157.568L153.166 42.041H126.828L122.426 53.6537H116.044L135.559 1.83745ZM151.258 36.5286L140.401 7.71732H139.74L128.809 36.5286H151.258Z" fill="white"/>
<path d="M195.303 55.4912C190.217 55.4912 185.619 54.3152 181.511 51.9632C177.451 49.5623 174.272 46.2794 171.973 42.1145C169.675 37.9006 168.525 33.1477 168.525 27.8558C168.525 22.564 169.65 17.8111 171.9 13.5972C174.199 9.33428 177.378 6.00235 181.437 3.60141C185.546 1.20047 190.168 0 195.303 0C199.118 0 202.737 0.808481 206.161 2.42544C209.634 4.0424 212.568 6.29635 214.965 9.18728C217.361 12.0292 219 15.2386 219.88 18.8155L213.351 19.6975C212.715 17.0516 211.492 14.6751 209.682 12.5682C207.922 10.4612 205.77 8.81979 203.226 7.64381C200.732 6.46784 198.091 5.87986 195.303 5.87986C191.439 5.87986 187.967 6.83534 184.885 8.74629C181.853 10.6082 179.481 13.2052 177.769 16.5371C176.057 19.82 175.201 23.5439 175.201 27.7088C175.201 31.8737 176.057 35.6221 177.769 38.9541C179.53 42.286 181.926 44.9074 184.959 46.8184C188.04 48.6803 191.488 49.6113 195.303 49.6113C198.042 49.6113 200.659 49.0478 203.153 47.9209C205.647 46.7449 207.799 45.1524 209.609 43.1435C211.419 41.0855 212.69 38.8071 213.424 36.3081L219.807 37.5576C218.975 40.9385 217.361 44.0009 214.965 46.7449C212.568 49.4888 209.634 51.6448 206.161 53.2127C202.737 54.7317 199.118 55.4912 195.303 55.4912Z" fill="white"/>
<path d="M265.273 53.6537V10.6572H264.613L240.109 53.6537H230.498V1.83745H237.248V44.8339H237.908L262.412 1.83745H271.949V53.6537H265.273Z" fill="white"/>
<path d="M285.879 1.83745H321.828V7.64381H292.629V21.7555H307.155C312.926 21.7555 317.426 23.1764 320.654 26.0184C323.931 28.8603 325.569 32.7557 325.569 37.7046C325.569 42.6535 323.882 46.5489 320.507 49.3908C317.132 52.2327 312.51 53.6537 306.641 53.6537H285.879V1.83745ZM305.541 47.7739C309.698 47.7739 312.951 46.8674 315.298 45.0544C317.695 43.2415 318.893 40.7915 318.893 37.7046C318.893 34.6667 317.719 32.2412 315.372 30.4283C313.073 28.5663 309.967 27.6353 306.054 27.6353H292.629V47.7739H305.541Z" fill="white"/>
<path d="M360.254 55.4912C354.874 55.4912 350.057 54.3152 345.802 51.9632C341.547 49.6113 338.221 46.3284 335.824 42.1145C333.477 37.9006 332.303 33.0987 332.303 27.7088C332.303 22.368 333.477 17.6151 335.824 13.4502C338.221 9.23628 341.547 5.95336 345.802 3.60141C350.057 1.20047 354.874 0 360.254 0C365.634 0 370.452 1.20047 374.707 3.60141C378.962 5.95336 382.263 9.23628 384.611 13.4502C387.008 17.6151 388.206 22.368 388.206 27.7088C388.206 33.0987 387.008 37.9006 384.611 42.1145C382.263 46.3284 378.962 49.6113 374.707 51.9632C370.452 54.3152 365.634 55.4912 360.254 55.4912ZM360.254 49.6113C364.314 49.6113 367.958 48.6803 371.186 46.8184C374.414 44.9074 376.932 42.3105 378.742 39.0276C380.552 35.6956 381.456 31.9227 381.456 27.7088C381.456 23.5439 380.552 19.7955 378.742 16.4636C376.932 13.1317 374.414 10.5347 371.186 8.67279C367.958 6.81083 364.314 5.87986 360.254 5.87986C356.195 5.87986 352.527 6.81083 349.25 8.67279C346.022 10.5347 343.503 13.1317 341.693 16.4636C339.884 19.7955 338.979 23.5439 338.979 27.7088C338.979 31.8737 339.884 35.6221 341.693 38.9541C343.503 42.286 346.022 44.9074 349.25 46.8184C352.527 48.6803 356.195 49.6113 360.254 49.6113Z" fill="white"/>
<path d="M41.6707 121.64V78.6431H41.0104L16.5069 121.64H6.8962V69.8233H13.6457V112.82H14.306L38.8095 69.8233H48.3468V121.64H41.6707Z" fill="white"/>
<path d="M162.868 115.76H167.93C170.229 113.996 172.038 111.791 173.359 109.145C174.728 106.499 175.682 103.216 176.22 99.2961L180.108 69.8233H212.975V115.76H220.825V132.664H214.736V121.64H168.884V132.664H162.868V115.76ZM206.299 115.76V75.7032H186.051L182.529 100.546C182.089 103.878 181.258 106.695 180.035 108.998C178.861 111.301 177.369 113.31 175.56 115.025V115.76H206.299Z" fill="white"/>
<path d="M253.06 123.477C247.68 123.477 242.862 122.301 238.607 119.949C234.352 117.597 231.026 114.314 228.63 110.1C226.282 105.886 225.108 101.085 225.108 95.6947C225.108 90.3538 226.282 85.6009 228.63 81.436C231.026 77.2221 234.352 73.9392 238.607 71.5873C242.862 69.1863 247.68 67.9859 253.06 67.9859C258.44 67.9859 263.258 69.1863 267.513 71.5873C271.768 73.9392 275.069 77.2221 277.417 81.436C279.813 85.6009 281.012 90.3538 281.012 95.6947C281.012 101.085 279.813 105.886 277.417 110.1C275.069 114.314 271.768 117.597 267.513 119.949C263.258 122.301 258.44 123.477 253.06 123.477ZM253.06 117.597C257.119 117.597 260.763 116.666 263.991 114.804C267.219 112.893 269.738 110.296 271.548 107.013C273.357 103.682 274.262 99.9086 274.262 95.6947C274.262 91.5298 273.357 87.7814 271.548 84.4495C269.738 81.1175 267.219 78.5206 263.991 76.6587C260.763 74.7967 257.119 73.8657 253.06 73.8657C249.001 73.8657 245.332 74.7967 242.055 76.6587C238.827 78.5206 236.309 81.1175 234.499 84.4495C232.689 87.7814 231.785 91.5298 231.785 95.6947C231.785 99.8596 232.689 103.608 234.499 106.94C236.309 110.272 238.827 112.893 242.055 114.804C245.332 116.666 249.001 117.597 253.06 117.597Z" fill="white"/>
<path d="M310.083 69.8233H332.605C335.736 69.8233 338.523 70.4358 340.969 71.6608C343.463 72.8368 345.42 74.4782 346.838 76.5852C348.256 78.6921 348.965 81.0686 348.965 83.7145C348.965 86.1644 348.256 88.3939 346.838 90.4028C345.42 92.4118 343.61 93.7592 341.409 94.4452V95.1802C344.05 95.9152 346.202 97.3852 347.865 99.5901C349.577 101.795 350.433 104.294 350.433 107.087C350.433 109.831 349.65 112.33 348.085 114.584C346.569 116.789 344.441 118.528 341.702 119.802C339.012 121.027 335.956 121.64 332.532 121.64H310.083V69.8233ZM331.798 92.0933C334.88 92.0933 337.398 91.3338 339.355 89.8148C341.36 88.2959 342.363 86.3359 342.363 83.935C342.363 81.534 341.36 79.5741 339.355 78.0551C337.398 76.4872 334.88 75.7032 331.798 75.7032H316.759V92.0933H331.798ZM331.652 115.76C333.95 115.76 336.029 115.368 337.888 114.584C339.746 113.8 341.189 112.722 342.216 111.35C343.292 109.978 343.83 108.434 343.83 106.719C343.83 104.171 342.681 102.089 340.382 100.472C338.083 98.8061 335.173 97.9731 331.652 97.9731H316.759V115.76H331.652Z" fill="white"/>
<path d="M384.86 123.477C379.773 123.477 375.176 122.301 371.067 119.949C367.008 117.548 363.829 114.265 361.53 110.1C359.231 105.886 358.082 101.134 358.082 95.8417C358.082 90.5498 359.207 85.7969 361.457 81.583C363.756 77.3201 366.935 73.9882 370.994 71.5873C375.102 69.1863 379.724 67.9859 384.86 67.9859C388.675 67.9859 392.294 68.7943 395.718 70.4113C399.19 72.0283 402.125 74.2822 404.521 77.1731C406.918 80.0151 408.556 83.2245 409.437 86.8014L402.907 87.6834C402.272 85.0375 401.049 82.661 399.239 80.5541C397.478 78.4471 395.326 76.8057 392.783 75.6297C390.289 74.4537 387.648 73.8657 384.86 73.8657C380.996 73.8657 377.523 74.8212 374.442 76.7322C371.41 78.5941 369.038 81.191 367.326 84.523C365.614 87.8059 364.758 91.5298 364.758 95.6947C364.758 99.8596 365.614 103.608 367.326 106.94C369.087 110.272 371.483 112.893 374.516 114.804C377.597 116.666 381.045 117.597 384.86 117.597C387.599 117.597 390.215 117.034 392.71 115.907C395.204 114.731 397.356 113.138 399.166 111.129C400.975 109.071 402.247 106.793 402.981 104.294L409.363 105.543C408.532 108.924 406.918 111.987 404.521 114.731C402.125 117.475 399.19 119.631 395.718 121.199C392.294 122.718 388.675 123.477 384.86 123.477Z" fill="white"/>
<path d="M430.92 75.7032H413.753V69.8233H454.763V75.7032H437.596V121.64H430.92V75.7032Z" fill="white"/>
<path d="M462.542 69.8233H483.157C488.831 69.8233 493.33 71.2198 496.656 74.0127C500.031 76.8056 501.718 80.6521 501.718 85.5519C501.718 88.7859 500.936 91.6278 499.371 94.0777C497.854 96.4787 495.678 98.3406 492.841 99.6636C490.053 100.938 486.825 101.575 483.157 101.575H469.071V121.64H462.542V69.8233ZM483.157 95.6212C486.874 95.6212 489.784 94.7392 491.887 92.9753C494.039 91.1623 495.115 88.7369 495.115 85.6989C495.115 82.612 494.039 80.1866 491.887 78.4226C489.784 76.6097 486.874 75.7032 483.157 75.7032H469.071V95.6212H483.157Z" fill="white"/>
<path d="M511.762 69.8233H547.27V75.7032H518.511V91.8728H544.335V97.7526H518.511V115.76H548.003V121.64H511.762V69.8233Z" fill="white"/>
<path d="M589.356 98.2671C587.889 100.374 585.81 102.04 583.12 103.265C580.479 104.49 577.716 105.102 574.83 105.102C571.26 105.102 568.081 104.416 565.293 103.045C562.505 101.673 560.304 99.6146 558.69 96.8707C557.125 94.1267 556.343 90.7703 556.343 86.8014V69.8233H563.092V86.1399C563.092 90.5988 564.29 93.9552 566.687 96.2092C569.132 98.4631 572.336 99.5901 576.298 99.5901C578.841 99.5901 581.335 98.8551 583.781 97.3852C586.275 95.8662 588.134 93.9797 589.356 91.7258V69.8233H596.033V121.64H589.356V98.2671Z" fill="white"/>
<path d="M644.687 121.64V78.6431H644.027L619.523 121.64H609.913V69.8233H616.662V112.82H617.322L641.826 69.8233H651.363V121.64H644.687Z" fill="white"/>
<path d="M138.951 143.934H145.701V165.763H173.579V143.934H180.255V195.75H173.579V171.643H145.701V195.75H138.951V143.934Z" fill="white"/>
<path d="M208.937 143.934H218.034L237.329 195.75H230.946L226.544 184.138H200.206L195.805 195.75H189.422L208.937 143.934ZM224.637 178.625L213.779 149.814H213.119L202.187 178.625H224.637Z" fill="white"/>
<path d="M264.832 143.934H285.447C291.121 143.934 295.62 145.331 298.946 148.123C302.321 150.916 304.008 154.763 304.008 159.663C304.008 162.897 303.226 165.739 301.661 168.188C300.145 170.589 297.968 172.451 295.131 173.774C292.343 175.048 289.115 175.685 285.447 175.685H271.361V195.75H264.832V143.934ZM285.447 169.732C289.164 169.732 292.074 168.85 294.178 167.086C296.33 165.273 297.406 162.848 297.406 159.81C297.406 156.723 296.33 154.297 294.178 152.533C292.074 150.72 289.164 149.814 285.447 149.814H271.361V169.732H285.447Z" fill="white"/>
<path d="M325.144 143.934H334.241L353.536 195.75H347.153L342.751 184.138H316.414L312.012 195.75H305.629L325.144 143.934ZM340.844 178.625L329.986 149.814H329.326L318.395 178.625H340.844Z" fill="white"/>
<path d="M384.889 197.588C379.802 197.588 375.204 196.412 371.096 194.06C367.037 191.659 363.858 188.376 361.559 184.211C359.26 179.997 358.111 175.244 358.111 169.952C358.111 164.661 359.236 159.908 361.485 155.694C363.784 151.431 366.963 148.099 371.023 145.698C375.131 143.297 379.753 142.097 384.889 142.097C388.703 142.097 392.323 142.905 395.746 144.522C399.219 146.139 402.153 148.393 404.55 151.284C406.947 154.126 408.585 157.335 409.465 160.912L402.936 161.794C402.3 159.148 401.077 156.772 399.268 154.665C397.507 152.558 395.355 150.916 392.812 149.74C390.317 148.564 387.676 147.976 384.889 147.976C381.025 147.976 377.552 148.932 374.471 150.843C371.438 152.705 369.066 155.302 367.355 158.634C365.643 161.917 364.787 165.641 364.787 169.805C364.787 173.97 365.643 177.719 367.355 181.051C369.115 184.383 371.512 187.004 374.544 188.915C377.625 190.777 381.074 191.708 384.889 191.708C387.627 191.708 390.244 191.144 392.738 190.017C395.233 188.841 397.385 187.249 399.194 185.24C401.004 183.182 402.276 180.904 403.009 178.405L409.392 179.654C408.561 183.035 406.947 186.098 404.55 188.841C402.153 191.585 399.219 193.741 395.746 195.309C392.323 196.828 388.703 197.588 384.889 197.588Z" fill="white"/>
<path d="M443.78 197.588C438.694 197.588 434.096 196.412 429.988 194.06C425.928 191.659 422.749 188.376 420.451 184.211C418.152 179.997 417.002 175.244 417.002 169.952C417.002 164.661 418.127 159.908 420.377 155.694C422.676 151.431 425.855 148.099 429.914 145.698C434.023 143.297 438.645 142.097 443.78 142.097C447.595 142.097 451.214 142.905 454.638 144.522C458.111 146.139 461.045 148.393 463.442 151.284C465.838 154.126 467.477 157.335 468.357 160.912L461.828 161.794C461.192 159.148 459.969 156.772 458.159 154.665C456.399 152.558 454.247 150.916 451.703 149.74C449.209 148.564 446.568 147.976 443.78 147.976C439.916 147.976 436.444 148.932 433.363 150.843C430.33 152.705 427.958 155.302 426.246 158.634C424.534 161.917 423.679 165.641 423.679 169.805C423.679 173.97 424.534 177.719 426.246 181.051C428.007 184.383 430.404 187.004 433.436 188.915C436.517 190.777 439.965 191.708 443.78 191.708C446.519 191.708 449.136 191.144 451.63 190.017C454.125 188.841 456.276 187.249 458.086 185.24C459.896 183.182 461.167 180.904 461.901 178.405L468.284 179.654C467.452 183.035 465.838 186.098 463.442 188.841C461.045 191.585 458.111 193.741 454.638 195.309C451.214 196.828 447.595 197.588 443.78 197.588Z" fill="white"/>
<path d="M479.049 143.934H501.571C504.702 143.934 507.489 144.547 509.935 145.771C512.429 146.947 514.386 148.589 515.804 150.696C517.222 152.803 517.932 155.179 517.932 157.825C517.932 160.275 517.222 162.505 515.804 164.514C514.386 166.523 512.576 167.87 510.375 168.556V169.291C513.016 170.026 515.168 171.496 516.831 173.701C518.543 175.906 519.399 178.405 519.399 181.198C519.399 183.942 518.616 186.441 517.051 188.694C515.535 190.899 513.407 192.639 510.669 193.913C507.979 195.138 504.922 195.75 501.498 195.75H479.049V143.934ZM500.764 166.204C503.846 166.204 506.365 165.445 508.321 163.926C510.326 162.407 511.329 160.447 511.329 158.046C511.329 155.645 510.326 153.685 508.321 152.166C506.365 150.598 503.846 149.814 500.764 149.814H485.725V166.204H500.764ZM500.618 189.87C502.916 189.87 504.995 189.478 506.854 188.694C508.712 187.91 510.155 186.833 511.182 185.461C512.258 184.089 512.796 182.545 512.796 180.83C512.796 178.282 511.647 176.2 509.348 174.583C507.049 172.917 504.139 172.084 500.618 172.084H485.725V189.87H500.618Z" fill="white"/>
<path d="M530.203 143.934H565.711V149.814H536.952V165.984H562.776V171.863H536.952V189.87H566.445V195.75H530.203V143.934Z" fill="white"/>
<path d="M588.136 149.814H570.969V143.934H611.979V149.814H594.812V195.75H588.136V149.814Z" fill="white"/>
<path d="M619.758 143.934H655.266V149.814H626.508V165.984H652.332V171.863H626.508V189.87H656V195.75H619.758V143.934Z" fill="white"/>
<path d="M21.4749 201.421C17.3092 201.421 13.7172 200.181 11.1227 197.582C3.04826 189.497 8.11301 171.753 22.6479 157.191C37.1828 142.63 54.8902 137.556 62.9604 145.641C66.912 149.595 67.811 156.046 65.4949 163.801C63.26 171.289 58.2638 179.186 51.4352 186.027C41.5797 195.909 30.2557 201.421 21.4749 201.421ZM12.8909 195.806C19.8522 202.78 36.348 197.599 49.667 184.255C56.2088 177.702 60.9824 170.183 63.1016 163.084C65.1395 156.252 64.4631 150.689 61.1965 147.412C54.2351 140.438 37.7394 145.619 24.4204 158.963C11.1013 172.306 5.92956 188.836 12.8909 195.806Z" fill="white"/>
<path d="M36.6819 208C16.4529 208 0 191.513 0 171.251C0 150.989 16.4529 134.502 36.6819 134.502C56.9109 134.502 73.3638 150.985 73.3638 171.251C73.3638 191.517 56.9066 208 36.6819 208ZM36.6819 137.054C17.8615 137.054 2.54736 152.396 2.54736 171.251C2.54736 190.106 17.8615 205.448 36.6819 205.448C55.5024 205.448 70.8165 190.106 70.8165 171.251C70.8165 152.396 55.5024 137.054 36.6819 137.054Z" fill="white"/>
<path d="M36.6819 186.396C16.1104 186.396 0 179.743 0 171.251C0 162.758 16.1104 156.102 36.6819 156.102C57.2534 156.102 73.3638 162.754 73.3638 171.251C73.3638 179.743 57.2491 186.396 36.6819 186.396ZM36.6819 158.654C16.2645 158.654 2.54736 165.165 2.54736 171.247C2.54736 177.329 16.2645 183.839 36.6819 183.839C57.0993 183.839 70.8165 177.329 70.8165 171.247C70.8122 165.169 57.0993 158.654 36.6819 158.654Z" fill="white"/>
<path d="M52.1544 184.363L35.77 174.352L1.91371 173.949L1.32717 173.533L1.2073 173.207L1.73389 172.349L30.8722 169.072L22.3782 159.211L23.2259 158.272C23.3115 158.332 31.767 164.255 39.2549 168.557C51.1783 168.75 71.6556 168.45 71.8611 168.446L71.9596 169.715L44.4053 173.537L52.9636 183.398L52.1544 184.363Z" fill="white"/>
</svg>
