<svg width="640" height="179" viewBox="0 0 640 179" fill="none" xmlns="http://www.w3.org/2000/svg">
<path d="M6.05878 0H11.8625V39.8841H34.5032V44.9893H6.05878V0Z" fill="white"/>
<path d="M42.556 0H48.3597V44.9893H42.556V0Z" fill="white"/>
<path d="M60.4294 0H69.6132L84.4732 36.8849H85.0472L99.9709 0H109.091V44.9893H103.287V7.33868H102.713L87.5344 44.9893H81.9859L66.8708 7.4025H66.2968V44.9893H60.4294V0Z" fill="white"/>
<path d="M121.28 0H140.796C143.517 0 145.962 0.53179 148.13 1.59537C150.299 2.6164 151.978 4.04159 153.169 5.87095C154.402 7.7003 155.018 9.76364 155.018 12.061C155.018 14.1881 154.402 16.1238 153.169 17.8681C151.936 19.6124 150.362 20.7823 148.449 21.3779V22.016C150.745 22.6542 152.616 23.9305 154.061 25.8449C155.55 27.7594 156.294 29.9291 156.294 32.354C156.294 34.7364 155.613 36.9061 154.253 38.8631C152.935 40.7775 151.106 42.2878 148.768 43.3939C146.43 44.4575 143.772 44.9893 140.796 44.9893H121.28V0ZM140.094 19.3358C142.773 19.3358 144.963 18.6764 146.663 17.3576C148.407 16.0387 149.278 14.337 149.278 12.2524C149.278 10.1678 148.407 8.46607 146.663 7.14724C144.963 5.78586 142.773 5.10517 140.094 5.10517H127.084V19.3358H140.094ZM139.967 39.8841C143.071 39.8841 145.6 39.1396 147.556 37.6506C149.555 36.1616 150.554 34.2897 150.554 32.0349C150.554 29.8227 149.555 28.0146 147.556 26.6107C145.6 25.1642 143.071 24.441 139.967 24.441H127.084V39.8841H139.967Z" fill="white"/>
<path d="M166.264 45.8189C165.201 45.8189 164.351 45.4998 163.713 44.8617C163.075 44.181 162.757 43.3301 162.757 42.3091C162.757 41.2881 163.075 40.4585 163.713 39.8203C164.351 39.1396 165.201 38.7993 166.264 38.7993C167.285 38.7993 168.114 39.1396 168.752 39.8203C169.432 40.4585 169.772 41.2881 169.772 42.3091C169.772 43.3301 169.432 44.181 168.752 44.8617C168.114 45.4998 167.285 45.8189 166.264 45.8189Z" fill="white"/>
<path d="M178.952 0H210.202V5.04135H184.819V17.2938H197.447C202.464 17.2938 206.376 18.5275 209.182 20.995C212.031 23.4625 213.455 26.8447 213.455 31.1415C213.455 35.4384 211.988 38.8206 209.054 41.2881C206.121 43.7556 202.103 44.9893 197.001 44.9893H178.952V0ZM196.044 39.8841C199.658 39.8841 202.485 39.0971 204.526 37.523C206.61 35.9489 207.651 33.8218 207.651 31.1415C207.651 28.5039 206.631 26.398 204.59 24.8239C202.592 23.2073 199.892 22.3989 196.49 22.3989H184.819V39.8841H196.044Z" fill="white"/>
<path d="M222.115 0H252.983V5.10517H227.982V19.1444H250.432V24.2496H227.982V39.8841H253.62V44.9893H222.115V0Z" fill="white"/>
<path d="M262.847 0H280.768C285.7 0 289.612 1.21248 292.503 3.63744C295.437 6.06239 296.904 9.40202 296.904 13.6563C296.904 16.4642 296.224 18.9317 294.863 21.0588C293.545 23.1434 291.653 24.7601 289.187 25.9087C286.763 27.0149 283.957 27.5679 280.768 27.5679H268.523V44.9893H262.847V0ZM280.768 22.3989C284 22.3989 286.529 21.6332 288.358 20.1016C290.229 18.5275 291.164 16.4216 291.164 13.784C291.164 11.1037 290.229 8.99786 288.358 7.46631C286.529 5.89222 284 5.10517 280.768 5.10517H268.523V22.3989H280.768Z" fill="white"/>
<path d="M305.635 0H336.503V5.10517H311.502V19.1444H333.952V24.2496H311.502V39.8841H337.14V44.9893H305.635V0Z" fill="white"/>
<path d="M346.303 0H376.47V5.10517H352.171V44.9893H346.303V0Z" fill="white"/>
<path d="M3.9541 101.423L22.7682 83.3632C24.5965 81.5764 25.9145 80.2363 26.7224 79.3428C27.5302 78.4494 28.2318 77.4284 28.827 76.2797C29.4223 75.0885 29.7199 73.791 29.7199 72.3871C29.7199 70.6428 29.2947 69.0687 28.4444 67.6648C27.6365 66.2183 26.5098 65.0909 25.0642 64.2826C23.6186 63.4743 22.0029 63.0701 20.2172 63.0701C18.3039 63.0701 16.5606 63.5594 14.9875 64.5379C13.4143 65.5163 12.1388 66.8777 11.1609 68.622C10.2255 70.3663 9.71526 72.3232 9.63023 74.4929H4.01788C4.01788 71.3447 4.69817 68.5156 6.05874 66.0056C7.46182 63.4955 9.39638 61.5386 11.8624 60.1346C14.3284 58.6882 17.0921 57.965 20.1534 57.965C23.0871 57.965 25.7232 58.5818 28.0617 59.8156C30.4002 61.0068 32.2284 62.666 33.5465 64.7931C34.8645 66.9203 35.5236 69.324 35.5236 72.0042C35.5236 74.5142 34.7795 76.9179 33.2914 79.2152C31.8033 81.5125 29.3797 84.2353 26.0208 87.3835L13.8395 98.8063V99.4445H34.7582V104.55H3.9541V101.423Z" fill="white"/>
<path d="M57.6914 106.145C54.5876 106.145 51.7815 105.443 49.2729 104.039C46.7644 102.593 44.766 100.614 43.2779 98.1043C41.7898 95.5518 40.9819 92.6801 40.8544 89.4894H46.7218C46.7218 91.6591 47.1895 93.6373 48.1249 95.4241C49.1028 97.1684 50.4209 98.5511 52.0791 99.5721C53.7373 100.551 55.5868 101.04 57.6276 101.04C59.626 101.04 61.433 100.636 63.0486 99.8273C64.6643 98.9765 65.9186 97.8278 66.8114 96.3814C67.7468 94.9349 68.2145 93.297 68.2145 91.4676C68.2145 89.5957 67.7468 87.9153 66.8114 86.4263C65.876 84.9373 64.5793 83.7673 62.9211 82.9165C61.3054 82.0656 59.4771 81.6402 57.4363 81.6402C56.7135 81.6402 55.9482 81.7253 55.1404 81.8954C54.3325 82.0656 53.6735 82.257 53.1633 82.4698L51.4413 78.1942L63.4313 65.3036V64.6655H43.4055V59.5603H72.2962V63.453L59.796 76.9817C62.4747 77.1944 64.8981 77.9602 67.0666 79.279C69.235 80.5979 70.9357 82.3209 72.1687 84.448C73.4017 86.5752 74.0182 88.9363 74.0182 91.5314C74.0182 94.2967 73.3167 96.8068 71.9136 99.0616C70.5105 101.274 68.5547 103.018 66.0461 104.294C63.5801 105.528 60.7952 106.145 57.6914 106.145Z" fill="white"/>
<path d="M250.557 101.423L269.371 83.3632C271.2 81.5764 272.518 80.2363 273.326 79.3429C274.133 78.4495 274.835 77.4284 275.43 76.2797C276.025 75.0885 276.323 73.791 276.323 72.3871C276.323 70.6428 275.898 69.0687 275.047 67.6648C274.24 66.2183 273.113 65.0909 271.667 64.2826C270.222 63.4743 268.606 63.0701 266.82 63.0701C264.907 63.0701 263.164 63.5594 261.591 64.5379C260.017 65.5163 258.742 66.8777 257.764 68.622C256.829 70.3663 256.318 72.3232 256.233 74.4929H250.621C250.621 71.3447 251.301 68.5156 252.662 66.0056C254.065 63.4955 256 61.5386 258.466 60.1346C260.932 58.6882 263.695 57.965 266.757 57.965C269.69 57.965 272.326 58.5818 274.665 59.8156C277.003 61.0068 278.832 62.666 280.15 64.7931C281.468 66.9203 282.127 69.324 282.127 72.0042C282.127 74.5142 281.383 76.9179 279.895 79.2152C278.406 81.5126 275.983 84.2353 272.624 87.3835L260.443 98.8063V99.4445H281.361V104.55H250.557V101.423Z" fill="white"/>
<path d="M305.06 57.9011C308.291 57.9011 311.204 58.5606 313.797 59.8794C316.391 61.1982 318.41 62.985 319.856 65.2398C321.344 67.4521 322.088 69.8983 322.088 72.5785C322.088 76.4925 320.451 80.6404 317.177 85.0224L302.445 104.486H295.43L308.695 86.873C307.25 87.5537 305.634 87.894 303.848 87.894C300.829 87.894 298.129 87.2559 295.748 85.9796C293.367 84.7033 291.497 82.959 290.136 80.7468C288.776 78.492 288.095 75.9607 288.095 73.1528C288.095 70.2174 288.818 67.601 290.264 65.3036C291.752 62.9638 293.771 61.1557 296.322 59.8794C298.916 58.5606 301.828 57.9011 305.06 57.9011ZM304.996 63.0063C302.87 63.0063 300.957 63.453 299.256 64.3464C297.598 65.1973 296.28 66.4098 295.302 67.9838C294.367 69.5154 293.899 71.2384 293.899 73.1528C293.899 75.0247 294.367 76.7265 295.302 78.258C296.28 79.747 297.619 80.9169 299.32 81.7678C301.021 82.5761 302.913 82.9803 304.996 82.9803C307.164 82.9803 309.099 82.5548 310.8 81.704C312.5 80.8531 313.84 79.6832 314.818 78.1942C315.796 76.7052 316.285 75.0247 316.285 73.1528C316.285 71.2384 315.796 69.5154 314.818 67.9838C313.84 66.4098 312.5 65.1973 310.8 64.3464C309.099 63.453 307.164 63.0063 304.996 63.0063Z" fill="white"/>
<path d="M360.087 59.5603H367.995L384.769 104.55H379.22L375.394 94.4669H352.498L348.671 104.55H343.123L360.087 59.5603ZM373.735 89.6808L364.296 64.6655H363.722L354.22 89.6808H373.735Z" fill="white"/>
<path d="M392.734 59.5603H412.313C415.034 59.5603 417.458 60.0921 419.584 61.1557C421.752 62.1767 423.453 63.6019 424.686 65.4313C425.919 67.2606 426.535 69.324 426.535 71.6213C426.535 73.7484 425.919 75.6841 424.686 77.4284C423.453 79.1727 421.88 80.3426 419.966 80.9382V81.5764C422.262 82.2145 424.133 83.4908 425.579 85.4052C427.067 87.3197 427.811 89.4894 427.811 91.9143C427.811 94.2967 427.131 96.4664 425.77 98.4234C424.452 100.338 422.603 101.848 420.222 102.954C417.883 104.018 415.226 104.55 412.25 104.55H392.734V59.5603ZM411.612 78.8961C414.29 78.8961 416.48 78.2367 418.181 76.9179C419.924 75.5991 420.796 73.8973 420.796 71.8127C420.796 69.7281 419.924 68.0264 418.181 66.7076C416.48 65.3462 414.29 64.6655 411.612 64.6655H398.538V78.8961H411.612ZM411.484 99.4445C413.483 99.4445 415.29 99.1041 416.905 98.4234C418.521 97.7427 419.775 96.8068 420.668 95.6156C421.603 94.4244 422.071 93.0843 422.071 91.5953C422.071 89.383 421.072 87.5749 419.074 86.171C417.075 84.7246 414.545 84.0013 411.484 84.0013H398.538V99.4445H411.484Z" fill="white"/>
<path d="M437.139 59.5603H467.306V64.6655H443.007V104.55H437.139V59.5603Z" fill="white"/>
<path d="M478.701 105.826C477.596 105.826 476.49 105.741 475.385 105.571C474.322 105.443 473.514 105.252 472.961 104.996V99.8912C474.365 100.402 475.916 100.657 477.617 100.657C479.063 100.657 480.338 100.402 481.444 99.8912C482.592 99.3806 483.718 98.4447 484.824 97.0833C485.929 95.7219 487.077 93.765 488.268 91.2124L489.097 89.3617L471.431 59.5603H477.617L491.584 83.3632H492.222L504.021 59.5603H510.143L494.199 91.6591C492.286 95.488 490.606 98.4021 489.161 100.402C487.758 102.359 486.248 103.741 484.633 104.55C483.017 105.4 481.04 105.826 478.701 105.826Z" fill="white"/>
<path d="M538.27 106.145C533.848 106.145 529.851 105.124 526.28 103.082C522.751 100.997 519.987 98.1469 517.989 94.5307C515.99 90.872 514.991 86.7453 514.991 82.1507C514.991 77.556 515.969 73.4294 517.925 69.7707C519.923 66.0694 522.687 63.1765 526.216 61.0919C529.787 59.0073 533.805 57.965 538.27 57.965C541.586 57.965 544.732 58.6669 547.709 60.0708C550.727 61.4748 553.279 63.4317 555.362 65.9418C557.445 68.4093 558.87 71.1958 559.635 74.3015L553.959 75.0673C553.406 72.7699 552.343 70.7066 550.77 68.8773C549.239 67.0479 547.369 65.6227 545.158 64.6017C542.989 63.5806 540.693 63.0701 538.27 63.0701C534.911 63.0701 531.892 63.8997 529.213 65.5589C526.577 67.1755 524.515 69.4303 523.027 72.3232C521.539 75.1736 520.795 78.4069 520.795 82.0231C520.795 85.6392 521.539 88.8938 523.027 91.7867C524.558 94.6796 526.641 96.9557 529.277 98.6149C531.956 100.232 534.953 101.04 538.27 101.04C540.651 101.04 542.925 100.551 545.094 99.5721C547.262 98.5511 549.133 97.1684 550.706 95.4241C552.279 93.6373 553.385 91.6591 554.023 89.4894L559.571 90.5742C558.848 93.5097 557.445 96.1686 555.362 98.5511C553.279 100.933 550.727 102.805 547.709 104.167C544.732 105.486 541.586 106.145 538.27 106.145Z" fill="white"/>
<path d="M578.311 64.6655H563.387V59.5603H599.038V64.6655H584.114V104.55H578.311V64.6655Z" fill="white"/>
<path d="M615.318 59.5603H623.227L640 104.55H634.451L630.625 94.4669H607.729L603.902 104.55H598.354L615.318 59.5603ZM628.967 89.6808L619.528 64.6655H618.954L609.451 89.6808H628.967Z" fill="white"/>
<path d="M92.625 123.375H101.809L116.669 160.26H117.243L132.167 123.375H141.287V168.364H135.483V130.714H134.909L119.73 168.364H114.181L99.0664 130.777H98.4924V168.364H92.625V123.375Z" fill="white"/>
<path d="M153.476 123.375H184.344V128.48H159.343V142.519H181.793V147.624H159.343V163.259H184.982V168.364H153.476V123.375Z" fill="white"/>
<path d="M214.744 169.96C210.323 169.96 206.326 168.939 202.754 166.897C199.225 164.812 196.462 161.962 194.463 158.345C192.465 154.687 191.466 150.56 191.466 145.965C191.466 141.371 192.444 137.244 194.4 133.585C196.398 129.884 199.162 126.991 202.691 124.906C206.262 122.822 210.28 121.78 214.744 121.78C218.061 121.78 221.207 122.482 224.183 123.885C227.202 125.289 229.753 127.246 231.837 129.756C233.92 132.224 235.344 135.01 236.11 138.116L230.433 138.882C229.881 136.585 228.818 134.521 227.245 132.692C225.714 130.863 223.843 129.437 221.632 128.416C219.464 127.395 217.168 126.885 214.744 126.885C211.385 126.885 208.367 127.714 205.688 129.374C203.052 130.99 200.99 133.245 199.502 136.138C198.014 138.988 197.27 142.222 197.27 145.838C197.27 149.454 198.014 152.708 199.502 155.601C201.032 158.494 203.116 160.77 205.752 162.429C208.43 164.046 211.428 164.854 214.744 164.854C217.125 164.854 219.4 164.365 221.568 163.387C223.737 162.366 225.608 160.983 227.181 159.239C228.754 157.452 229.859 155.474 230.497 153.304L236.046 154.389C235.323 157.324 233.92 159.983 231.837 162.366C229.753 164.748 227.202 166.62 224.183 167.981C221.207 169.3 218.061 169.96 214.744 169.96Z" fill="white"/>
<path d="M254.785 128.48H239.861V123.375H275.513V128.48H260.589V168.364H254.785V128.48Z" fill="white"/>
<path d="M303.518 169.96C298.842 169.96 294.654 168.939 290.954 166.897C287.255 164.854 284.364 162.004 282.281 158.345C280.24 154.687 279.22 150.517 279.22 145.838C279.22 141.2 280.24 137.074 282.281 133.458C284.364 129.799 287.255 126.949 290.954 124.906C294.654 122.822 298.842 121.78 303.518 121.78C308.195 121.78 312.383 122.822 316.082 124.906C319.782 126.949 322.651 129.799 324.692 133.458C326.776 137.074 327.817 141.2 327.817 145.838C327.817 150.517 326.776 154.687 324.692 158.345C322.651 162.004 319.782 164.854 316.082 166.897C312.383 168.939 308.195 169.96 303.518 169.96ZM303.518 164.854C307.047 164.854 310.215 164.046 313.021 162.429C315.827 160.77 318.017 158.516 319.59 155.665C321.163 152.772 321.95 149.496 321.95 145.838C321.95 142.222 321.163 138.967 319.59 136.074C318.017 133.181 315.827 130.926 313.021 129.31C310.215 127.693 307.047 126.885 303.518 126.885C299.99 126.885 296.801 127.693 293.952 129.31C291.146 130.926 288.956 133.181 287.383 136.074C285.81 138.967 285.023 142.222 285.023 145.838C285.023 149.454 285.81 152.708 287.383 155.601C288.956 158.494 291.146 160.77 293.952 162.429C296.801 164.046 299.99 164.854 303.518 164.854Z" fill="white"/>
<path d="M337.847 144.689C336.826 144.689 335.976 144.37 335.296 143.732C334.658 143.051 334.339 142.179 334.339 141.115C334.339 140.137 334.658 139.329 335.296 138.69C335.976 138.01 336.826 137.669 337.847 137.669C338.867 137.669 339.696 138.01 340.334 138.69C341.014 139.329 341.355 140.137 341.355 141.115C341.355 142.179 341.014 143.051 340.334 143.732C339.696 144.37 338.867 144.689 337.847 144.689ZM337.847 169.194C336.826 169.194 335.976 168.875 335.296 168.237C334.658 167.556 334.339 166.705 334.339 165.684C334.339 164.663 334.658 163.833 335.296 163.195C335.976 162.515 336.826 162.174 337.847 162.174C338.867 162.174 339.696 162.515 340.334 163.195C341.014 163.833 341.355 164.663 341.355 165.684C341.355 166.705 341.014 167.556 340.334 168.237C339.696 168.875 338.867 169.194 337.847 169.194Z" fill="white"/>
<path d="M388.035 169.96C383.358 169.96 379.17 168.939 375.471 166.897C371.772 164.854 368.881 162.004 366.797 158.345C364.757 154.687 363.736 150.517 363.736 145.838C363.736 141.2 364.757 137.074 366.797 133.458C368.881 129.799 371.772 126.949 375.471 124.906C379.17 122.822 383.358 121.78 388.035 121.78C392.712 121.78 396.9 122.822 400.599 124.906C404.298 126.949 407.168 129.799 409.209 133.458C411.292 137.074 412.334 141.2 412.334 145.838C412.334 150.517 411.292 154.687 409.209 158.345C407.168 162.004 404.298 164.854 400.599 166.897C396.9 168.939 392.712 169.96 388.035 169.96ZM388.035 164.854C391.564 164.854 394.732 164.046 397.538 162.429C400.344 160.77 402.534 158.516 404.107 155.665C405.68 152.772 406.466 149.496 406.466 145.838C406.466 142.222 405.68 138.967 404.107 136.074C402.534 133.181 400.344 130.926 397.538 129.31C394.732 127.693 391.564 126.885 388.035 126.885C384.506 126.885 381.317 127.693 378.469 129.31C375.662 130.926 373.473 133.181 371.9 136.074C370.326 138.967 369.54 142.222 369.54 145.838C369.54 149.454 370.326 152.708 371.9 155.601C373.473 158.494 375.662 160.77 378.469 162.429C381.317 164.046 384.506 164.854 388.035 164.854Z" fill="white"/>
<path d="M448.384 148.071C447.109 149.901 445.302 151.347 442.963 152.411C440.667 153.474 438.265 154.006 435.756 154.006C432.653 154.006 429.889 153.41 427.465 152.219C425.042 151.028 423.129 149.241 421.726 146.859C420.365 144.476 419.685 141.562 419.685 138.116V123.375H425.552V137.542C425.552 141.413 426.594 144.327 428.677 146.284C430.803 148.241 433.588 149.22 437.032 149.22C439.243 149.22 441.411 148.582 443.537 147.305C445.706 145.987 447.321 144.349 448.384 142.392V123.375H454.188V168.364H448.384V148.071Z" fill="white"/>
<path d="M479.137 123.375H487.045L503.819 168.364H498.27L494.443 158.282H471.548L467.721 168.364H462.172L479.137 123.375ZM492.785 153.495L483.346 128.48H482.772L473.27 153.495H492.785Z" fill="white"/>
<path d="M511.784 123.375H517.587V143.03H518.225L536.848 123.375H544.118L523.2 145.136L544.756 168.364H537.422L518.225 147.242H517.587V168.364H511.784V123.375Z" fill="white"/>
<path d="M569.774 169.96C565.097 169.96 560.909 168.939 557.21 166.897C553.51 164.854 550.619 162.004 548.536 158.345C546.495 154.687 545.475 150.517 545.475 145.838C545.475 141.2 546.495 137.074 548.536 133.458C550.619 129.799 553.51 126.949 557.21 124.906C560.909 122.822 565.097 121.78 569.774 121.78C574.451 121.78 578.639 122.822 582.338 124.906C586.037 126.949 588.907 129.799 590.947 133.458C593.031 137.074 594.073 141.2 594.073 145.838C594.073 150.517 593.031 154.687 590.947 158.345C588.907 162.004 586.037 164.854 582.338 166.897C578.639 168.939 574.451 169.96 569.774 169.96ZM569.774 164.854C573.303 164.854 576.47 164.046 579.276 162.429C582.082 160.77 584.272 158.516 585.845 155.665C587.419 152.772 588.205 149.496 588.205 145.838C588.205 142.222 587.419 138.967 585.845 136.074C584.272 133.181 582.082 130.926 579.276 129.31C576.47 127.693 573.303 126.885 569.774 126.885C566.245 126.885 563.056 127.693 560.207 129.31C557.401 130.926 555.211 133.181 553.638 136.074C552.065 138.967 551.278 142.222 551.278 145.838C551.278 149.454 552.065 152.708 553.638 155.601C555.211 158.494 557.401 160.77 560.207 162.429C563.056 164.046 566.245 164.854 569.774 164.854Z" fill="white"/>
<path d="M603.4 123.375H622.98C625.701 123.375 628.124 123.907 630.25 124.97C632.419 125.991 634.119 127.417 635.352 129.246C636.586 131.075 637.202 133.139 637.202 135.436C637.202 137.563 636.586 139.499 635.352 141.243C634.119 142.987 632.546 144.157 630.633 144.753V145.391C632.929 146.029 634.8 147.305 636.245 149.22C637.733 151.134 638.478 153.304 638.478 155.729C638.478 158.111 637.797 160.281 636.437 162.238C635.119 164.152 633.269 165.663 630.888 166.769C628.55 167.832 625.892 168.364 622.916 168.364H603.4V123.375ZM622.278 142.711C624.957 142.711 627.147 142.051 628.847 140.733C630.59 139.414 631.462 137.712 631.462 135.627C631.462 133.543 630.59 131.841 628.847 130.522C627.147 129.161 624.957 128.48 622.278 128.48H609.204V142.711H622.278ZM622.151 163.259C624.149 163.259 625.956 162.919 627.572 162.238C629.187 161.557 630.442 160.621 631.334 159.43C632.27 158.239 632.738 156.899 632.738 155.41C632.738 153.198 631.738 151.39 629.74 149.986C627.742 148.539 625.212 147.816 622.151 147.816H609.204V163.259H622.151Z" fill="white"/>
<path d="M18.6685 173.287C15.0472 173.287 11.9246 172.211 9.6692 169.954C2.6499 162.935 7.05279 147.528 19.6883 134.885C32.3238 122.242 47.7171 117.837 54.7327 124.857C58.1679 128.29 58.9495 133.891 56.936 140.624C54.9932 147.126 50.6499 153.982 44.7136 159.922C36.146 168.502 26.3019 173.287 18.6685 173.287ZM11.2063 168.413C17.2579 174.468 31.598 169.969 43.1765 158.384C48.8634 152.694 53.0132 146.165 54.8555 140.002C56.6271 134.07 56.039 129.24 53.1993 126.395C47.1477 120.339 32.8076 124.838 21.2291 136.423C9.6506 148.009 5.15467 162.361 11.2063 168.413Z" fill="white"/>
<path d="M31.8883 179C14.3029 179 0 164.685 0 147.093C0 129.5 14.3029 115.185 31.8883 115.185C49.4738 115.185 63.7767 129.497 63.7767 147.093C63.7767 164.689 49.4701 179 31.8883 179ZM31.8883 117.401C15.5273 117.401 2.21447 130.722 2.21447 147.093C2.21447 163.463 15.5273 176.784 31.8883 176.784C48.2493 176.784 61.5622 163.463 61.5622 147.093C61.5622 130.722 48.2493 117.401 31.8883 117.401Z" fill="white"/>
<path d="M31.8883 160.242C14.0051 160.242 0 154.466 0 147.093C0 139.719 14.0051 133.939 31.8883 133.939C49.7715 133.939 63.7767 139.715 63.7767 147.093C63.7767 154.466 49.7678 160.242 31.8883 160.242ZM31.8883 136.155C14.1391 136.155 2.21445 141.808 2.21445 147.089C2.21445 152.37 14.1391 158.023 31.8883 158.023C49.6376 158.023 61.5622 152.37 61.5622 147.089C61.5585 141.812 49.6376 136.155 31.8883 136.155Z" fill="white"/>
<path d="M45.3389 158.477L31.0956 149.785L1.6636 149.435L1.15372 149.074L1.04951 148.791L1.50729 148.046L26.8378 145.201L19.4538 136.639L20.1907 135.824C20.2651 135.876 27.6157 141.019 34.1251 144.754C44.4903 144.922 62.2916 144.661 62.4703 144.657L62.5559 145.759L38.6024 149.078L46.0423 157.639L45.3389 158.477Z" fill="white"/>
<path d="M85.0355 81.1509H233.848V86.4688H85.0355V81.1509Z" fill="white"/>
</svg>
